<svg xmlns="http://www.w3.org/2000/svg" width="24" height="25" viewBox="0 0 24 25" fill="none">
<path d="M22.0001 17.4201V20.4201C22.0012 20.6986 21.9441 20.9743 21.8326 21.2294C21.721 21.4846 21.5574 21.7137 21.3521 21.902C21.1469 22.0902 20.9046 22.2336 20.6408 22.3228C20.377 22.412 20.0974 22.4452 19.8201 22.4201C16.7429 22.0857 13.7871 21.0342 11.1901 19.3501C8.77388 17.8148 6.72539 15.7663 5.19006 13.3501C3.50003 10.7413 2.4483 7.77109 2.12006 4.6801C2.09507 4.40356 2.12793 4.12486 2.21656 3.86172C2.30518 3.59859 2.44763 3.35679 2.63482 3.15172C2.82202 2.94665 3.04986 2.78281 3.30385 2.67062C3.55783 2.55843 3.8324 2.50036 4.11006 2.5001H7.11006C7.59536 2.49532 8.06585 2.66718 8.43382 2.98363C8.80179 3.30008 9.04213 3.73954 9.11005 4.2201C9.23668 5.18016 9.47151 6.12282 9.81006 7.0301C9.9446 7.38802 9.97372 7.77701 9.89396 8.15098C9.81421 8.52494 9.62892 8.86821 9.36005 9.1401L8.09006 10.4101C9.51361 12.9136 11.5865 14.9865 14.0901 16.4101L15.3601 15.1401C15.6319 14.8712 15.9752 14.6859 16.3492 14.6062C16.7231 14.5264 17.1121 14.5556 17.4701 14.6901C18.3773 15.0286 19.32 15.2635 20.2801 15.3901C20.7658 15.4586 21.2095 15.7033 21.5266 16.0776C21.8437 16.4519 22.0122 16.9297 22.0001 17.4201Z" stroke="#1E293B" stroke-width="2" stroke-linecap="round" stroke-linejoin="round"/>
<path d="M14.05 2.5C16.0883 2.71477 17.9922 3.6188 19.4469 5.06258C20.9016 6.50636 21.8199 8.40341 22.05 10.44" stroke="#1E293B" stroke-width="2" stroke-linecap="round" stroke-linejoin="round"/>
<path d="M14.05 6.5C15.0336 6.69394 15.9361 7.17903 16.6404 7.89231C17.3448 8.60559 17.8185 9.51413 18 10.5" stroke="#1E293B" stroke-width="2" stroke-linecap="round" stroke-linejoin="round"/>
</svg>