<svg width="376" height="99" viewBox="0 0 376 99" fill="none" xmlns="http://www.w3.org/2000/svg">
<path fill-rule="evenodd" clip-rule="evenodd" d="M39.253 0.900033L34.1633 13.9452C34.0562 14.2195 34.1812 14.5244 34.4593 14.667L58.9198 27.2149C59.0375 27.2753 59.1037 27.3946 59.0873 27.517C58.6983 30.4321 55.6911 32.4627 52.4992 32.1071C44.1419 31.1762 28.7069 30.2468 18.5961 34.3818C16.4239 35.2702 14.1478 32.2911 12.9622 30.3925C12.375 29.4524 12.1196 28.3696 12.2694 27.296C14.0946 14.2104 32.9213 3.14322 38.361 0.199782C38.8771 -0.0794425 39.4543 0.38402 39.253 0.900033ZM43.8562 16.2795L37.8926 13.4436C37.7747 13.3875 37.7081 13.2699 37.7261 13.1497L37.769 12.8633C38.235 9.74947 39.9697 6.91068 42.6267 4.91353C42.8159 4.77138 43.1026 4.88556 43.1159 5.10894C43.182 6.22282 43.3583 8.82009 43.6547 10.6179C43.9122 12.18 44.4454 14.261 44.8062 15.5924C44.9429 16.0968 44.3609 16.5195 43.8562 16.2795ZM30.8543 73.8459C16.6101 73.8459 16.5019 45.7721 16.6281 40.0457C16.6419 39.4184 17.0655 38.8797 17.7002 38.6398C36.6075 31.4911 58.096 41.0989 63.5097 59.122L67.5058 72.4253C67.7206 73.1404 67.1321 73.8459 66.3203 73.8459H30.8543ZM22.6969 77.9278C19.7942 77.9278 16.9199 78.45 14.2382 79.4645C11.5564 80.479 9.11971 81.9659 7.06718 83.8405C5.01466 85.715 3.3865 87.9404 2.27568 90.3896C1.24841 92.6546 0.682188 95.0699 0.602822 97.5171C0.59212 97.8471 0.886165 98.1148 1.24764 98.1148H22.6541V98.1157H49.5081C52.4109 98.1157 55.2851 97.5937 57.9669 96.5792C60.6487 95.5647 63.0854 94.0778 65.1379 92.2032C67.1904 90.3287 68.8186 88.1033 69.9294 85.6541C70.9567 83.3891 71.5229 80.9737 71.6022 78.5265C71.613 78.1966 71.3189 77.9289 70.9574 77.9289L22.6969 77.9287V77.9278ZM5.24363 94.2486C6.60538 86.7127 13.7513 81.1267 22.1863 81.1267C22.4264 81.1267 22.5711 81.3696 22.4406 81.5537L18.0126 87.8018C17.8706 88.0021 17.8727 88.2603 18.0178 88.4587L22.0629 93.987C22.3535 94.3842 22.0418 94.9169 21.5187 94.9169H5.87774C5.48493 94.9169 5.17966 94.6025 5.24363 94.2486Z" fill="#FA7661"/>
<path d="M106.347 84.2733C104.695 84.2733 103.356 82.9344 103.356 81.2827V16.9906C103.356 15.3389 104.695 14 106.347 14H151.176C153.487 14 154.825 16.3538 153.711 18.3053L153.688 18.3455C153.617 18.4693 153.546 18.5934 153.487 18.7229L149.373 27.6505C149.307 27.794 149.233 27.9343 149.133 28.0571C148.559 28.7659 147.639 29.159 146.721 29.159H125.12C123.468 29.159 122.129 30.4979 122.129 32.1496V41.8293C122.129 43.4809 123.468 44.8199 125.12 44.8199H148.553C150.205 44.8199 151.544 46.1588 151.544 47.8105V56.4863C151.544 58.138 150.205 59.4769 148.553 59.4769H125.12C123.468 59.4769 122.129 60.8158 122.129 62.4675V81.2827C122.129 82.9344 120.791 84.2733 119.139 84.2733H106.347Z" fill="#1F1E1E"/>
<path d="M170.825 84.2733C169.173 84.2733 167.834 82.9344 167.834 81.2827V16.9906C167.834 15.3389 169.173 14 170.825 14H183.918C185.569 14 186.908 15.3389 186.908 16.9906V81.2827C186.908 82.9344 185.569 84.2733 183.918 84.2733H170.825Z" fill="#1F1E1E"/>
<path d="M285.552 81.2827C285.552 82.9344 286.891 84.2733 288.543 84.2733H301.636C303.287 84.2733 304.626 82.9344 304.626 81.2827V16.9906C304.626 15.3389 303.287 14 301.636 14H288.543C286.891 14 285.552 15.3389 285.552 16.9906V81.2827Z" fill="#1F1E1E"/>
<path d="M324.33 84.2733C322.678 84.2733 321.339 82.9344 321.339 81.2827V16.9906C321.339 15.3389 322.678 14 324.33 14H372.76C374.412 14 375.751 15.3389 375.751 16.9906V25.9676C375.751 27.6192 374.412 28.9582 372.76 28.9582H342.902C341.25 28.9582 339.911 30.2971 339.911 31.9488V38.416C339.911 40.0677 341.25 41.4066 342.902 41.4066H364.628C366.28 41.4066 367.619 42.7456 367.619 44.3972V52.3703C367.619 54.0219 366.28 55.3609 364.628 55.3609H342.902C341.25 55.3609 339.911 56.6998 339.911 58.3515V66.3246C339.911 67.9762 341.25 69.3152 342.902 69.3152H370.795C373.103 69.3152 374.512 71.8019 373.407 73.7638C373.332 73.8967 373.255 74.0289 373.191 74.1674L369.223 82.7541C369.159 82.8926 369.087 83.0281 368.991 83.1471C368.414 83.8672 367.456 84.2733 366.531 84.2733H324.33Z" fill="#1F1E1E"/>
<path d="M250.166 26.6924C250.166 26.6924 245.963 20.8129 245.513 17.0303C245.319 15.3902 246.676 14.0466 248.327 14.0466H265.965C268.146 14.0466 269.594 16.3072 268.681 18.2886L261.3 34.3074C260.609 35.8076 258.821 36.478 257.413 35.6147C254.165 33.6238 250.166 26.6924 250.166 26.6924Z" fill="#1F1E1E"/>
<path d="M222.242 71.1159C222.242 71.1159 226.567 77.5127 227.016 81.2953C227.211 82.9354 225.854 84.279 224.202 84.279H206.565C204.383 84.279 202.936 82.0184 203.849 80.0369L211.229 64.0181C211.92 62.518 213.709 61.8476 215.117 62.7109C218.364 64.7017 222.242 71.1159 222.242 71.1159Z" fill="#1F1E1E"/>
<path d="M206.492 14.1811H221.36C222.336 14.1811 223.251 14.6574 223.811 15.4571L268.482 79.2958C269.869 81.278 268.451 84.001 266.032 84.001H250.854C249.874 84.001 248.957 83.5214 248.398 82.717L204.036 18.8783C202.658 16.8953 204.077 14.1811 206.492 14.1811Z" fill="#1F1E1E"/>
</svg>
