<svg width="215" height="325" viewBox="0 0 215 325" fill="none" xmlns="http://www.w3.org/2000/svg">
<path fill-rule="evenodd" clip-rule="evenodd" d="M117.04 2.60051L101.628 45.8544C101.303 46.764 101.682 47.7747 102.524 48.2476L176.595 89.8529C176.951 90.0531 177.151 90.4486 177.102 90.8543C175.924 100.52 166.818 107.253 157.152 106.074C131.845 102.987 85.1049 99.9057 54.4877 113.616C47.9099 116.562 41.0175 106.684 37.4271 100.389C35.6492 97.2716 34.8757 93.6815 35.3291 90.1217C40.8561 46.7337 97.8667 10.0382 114.339 0.278691C115.902 -0.647135 117.65 0.889569 117.04 2.60051ZM130.979 53.5941L112.92 44.1911C112.563 44.0053 112.362 43.6153 112.416 43.2165L112.546 42.2671C113.957 31.9425 119.21 22.53 127.256 15.908C127.829 15.4367 128.697 15.8153 128.737 16.5559C128.938 20.2492 129.472 28.861 130.369 34.8218C131.149 40.0014 132.763 46.9014 133.856 51.316C134.27 52.9885 132.507 54.3898 130.979 53.5941ZM91.6077 244.467C48.4738 244.467 48.1464 151.383 48.5283 132.396C48.5701 130.316 49.853 128.53 51.775 127.734C109.029 104.031 174.1 135.888 190.494 195.647L202.595 239.757C203.245 242.128 201.463 244.467 199.005 244.467H91.6077ZM66.9056 258.002C58.1157 258.002 49.4118 259.733 41.291 263.097C33.1702 266.461 25.7914 271.391 19.576 277.606C13.3606 283.822 8.43032 291.201 5.06657 299.321C1.95582 306.831 0.241191 314.84 0.000857453 322.954C-0.0315494 324.048 0.858868 324.936 1.95347 324.936H66.7757V324.939H148.094C156.884 324.939 165.588 323.208 173.709 319.844C181.83 316.48 189.209 311.55 195.424 305.335C201.639 299.119 206.57 291.741 209.933 283.62C213.044 276.11 214.759 268.101 214.999 259.987C215.032 258.893 214.141 258.005 213.047 258.005L66.9056 258.005V258.002ZM14.054 312.116C18.1776 287.13 39.8165 268.608 65.3592 268.608C66.0863 268.608 66.5245 269.414 66.1294 270.024L52.7205 290.741C52.2906 291.405 52.2969 292.261 52.7364 292.919L64.9855 311.249C65.8656 312.566 64.9216 314.332 63.3376 314.332H15.9742C14.7847 314.332 13.8603 313.29 14.054 312.116Z" fill="#1F1E1E"/>
</svg>
