<svg width="25" height="24" viewBox="0 0 25 24" fill="none" xmlns="http://www.w3.org/2000/svg">
<path d="M23.75 5.13282C22.906 5.49955 22.013 5.74116 21.0992 5.85001C22.0595 5.28769 22.7817 4.39434 23.1303 3.33751C22.2224 3.86841 21.2307 4.24092 20.1978 4.43907C19.7629 3.98322 19.2397 3.62059 18.6603 3.3732C18.0808 3.12581 17.4571 2.99884 16.827 3.00001C14.2761 3.00001 12.2117 5.03438 12.2117 7.5422C12.2099 7.89102 12.2499 8.23881 12.3308 8.57813C10.5016 8.49238 8.7104 8.02575 7.07187 7.2081C5.43333 6.39044 3.98351 5.23977 2.81516 3.8297C2.40527 4.52069 2.1885 5.30909 2.1875 6.11251C2.1875 7.68751 3.00922 9.0797 4.25 9.89532C3.51487 9.87787 2.79481 9.68331 2.15094 9.32813V9.38438C2.15094 11.5875 3.74469 13.4203 5.85406 13.8375C5.4574 13.9433 5.04864 13.9968 4.63812 13.9969C4.34683 13.9974 4.0562 13.9691 3.77047 13.9125C4.35687 15.7172 6.06359 17.0297 8.08531 17.0672C6.44252 18.3333 4.4256 19.0175 2.35156 19.0125C1.98341 19.012 1.61561 18.99 1.25 18.9469C3.35993 20.2942 5.81255 21.0068 8.31594 21C16.8172 21 21.4616 14.0766 21.4616 8.07188C21.4616 7.87501 21.4564 7.67813 21.447 7.48595C22.3485 6.84472 23.1283 6.04787 23.75 5.13282V5.13282Z" fill="#0D5753"/>
</svg>
