<svg xmlns="http://www.w3.org/2000/svg" width="25" height="24" viewBox="0 0 25 24" fill="none">
<path fill-rule="evenodd" clip-rule="evenodd" d="M2 4.5C2 2.84315 3.34315 1.5 5 1.5H6.37163C7.232 1.5 7.98197 2.08556 8.19064 2.92025L9.29644 7.34343C9.47941 8.0753 9.20594 8.84555 8.60242 9.29818L7.3088 10.2684C7.17447 10.3691 7.14527 10.5167 7.183 10.6197C8.31851 13.7195 10.7805 16.1815 13.8803 17.317C13.9833 17.3547 14.1309 17.3255 14.2316 17.1912L15.2018 15.8976C15.6545 15.2941 16.4247 15.0206 17.1566 15.2036L21.5798 16.3094C22.4144 16.518 23 17.268 23 18.1284V19.5C23 21.1569 21.6569 22.5 20 22.5H17.75C9.05151 22.5 2 15.4485 2 6.75V4.5Z" fill="white"/>
</svg>